# xmcd
#
# Track frame offsets:
#	150
#	12807
#	24627
#	37802
#	52580
#	65289
#	76762
#	90589
#	101021
#	114458
#	126527
#	138522
#	151057
#	163754
#	177247
#	192892
#	208906
#	224765
#	238233
#	253929
#	268975
#	283598
#	298982
#	309061
#	327495
#	345183
#
# Disc length: 4746 seconds
#
# Revision: 0
# Processed by: cddbd v1.5.2PL0 Copyright (c) Steve Scherf et al.
# Submitted via: dBpowerAMP V4.0
#
DISCID=7c12881a
DTITLE=BBKing - The Blues
DYEAR=1900
DGENRE=
TTITLE0=Why Do Things Happen to Me
TTITLE1=Ruby Lee
TTITLE2=When My Heart Beats
TTITLE3=Past Day
TTITLE4=Boogie Woogie Woman
TTITLE5=Early In The Morning
TTITLE6=I Want To Get Married
TTITLE7=That  Ain't The Way To Do It
TTITLE8=Troubles, Troubles, Troubles
TTITLE9=Don't You Want A Man Like Me
TTITLE10=You Know I Go For You
TTITLE11=What Can I Do
TTITLE12=You're Gonna Miss Me
TTITLE13=Got'Em Bad
TTITLE14=Troubles Don't Last
TTITLE15=Your Letter
TTITLE16=I Can't Explain
TTITLE17=The Wrong Road
TTITLE18=I Need You Baby
TTITLE19=So Many Days
TTITLE20=DownHearted
TTITLE21=Strange Things
TTITLE22=I'm In Love
TTITLE23=My Sometimes Baby
TTITLE24=Hold That Train
TTITLE25=Treat Me Right
EXTD=
EXTT0=
EXTT1=
EXTT2=
EXTT3=
EXTT4=
EXTT5=
EXTT6=
EXTT7=
EXTT8=
EXTT9=
EXTT10=
EXTT11=
EXTT12=
EXTT13=
EXTT14=
EXTT15=
EXTT16=
EXTT17=
EXTT18=
EXTT19=
EXTT20=
EXTT21=
EXTT22=
EXTT23=
EXTT24=
EXTT25=
PLAYORDER=
